<svg xmlns="http://www.w3.org/2000/svg" width="200" height="200" viewBox="0 0 100 100" aria-labelledby="title">
  <title>GARmonia Logo</title>
  <defs>
    <linearGradient id="SvgjsLinearGradient2476" x1="0%" y1="0%" x2="100%" y2="0%">
      <stop stop-color="#fbb040" offset="0"/>
      <stop stop-color="#f9ed32" offset="1"/>
    </linearGradient>
  </defs>
  <g fill="url(#SvgjsLinearGradient2476)" transform="matrix(1.232848829662716,0,0,1.232848829662716,444.5122086572565,-317.60647185437875)">
    <g>
      <path stroke="url(#SvgjsLinearGradient2476)" stroke-width="0.0582" stroke-miterlimit="10" d="M-325.366,271.145c-0.105-0.132-0.217-0.265-0.328-0.4   c0.027-0.019,0.057-0.042,0.086-0.065c0.002,0.007,0.006,0.014,0.01,0.021C-325.516,270.855-325.438,271.002-325.366,271.145z"/>
    </g>
    <g>
      <path stroke="url(#SvgjsLinearGradient2476)" stroke-width="0.0582" stroke-miterlimit="10" d="M-325.366,271.145c-0.105-0.132-0.217-0.265-0.328-0.4   c0.027-0.019,0.057-0.042,0.086-0.065c0.002,0.007,0.006,0.014,0.01,0.021C-325.516,270.855-325.438,271.002-325.366,271.145z"/>
    </g>
    <g>
      <path d="M-279.444,257.62v80.66h-28.731c0.95-3.613-0.451-6.926,2.38-8.493c2.959-1.638,8.282-0.084,11.652-1.741   c2.883-1.416,3.532-4.144,2.26-8.347c0.147-1.621,2.119-2.015,1.407-3.957c-0.019,0-0.471-0.93-0.533-0.756   c0.157-0.896,1.594-1.242,1.736-2.244c0.15-1.048-0.651-1.983-0.521-3.305c1.619-1.362,4.382-1.131,4.697-3.478   c0.275-2.072-2.459-4.755-3.305-6.088c-1.208-1.894-3.468-3.941-3.654-5.738c-0.2-1.982,1.042-2.67,1.218-4.175   c0.21-1.785-0.48-3.738-1.045-5.392c-1.671-4.912-2.798-9.689-5.736-13.043c-6.819-7.774-21.232-10.751-34.434-7.13   c-0.19,0.052-0.375,0.106-0.562,0.162c0.192,0.058,0.379,0.118,0.567,0.181c4.431,1.467,8.232,3.764,10.885,6.787   c2.939,3.354,4.064,8.131,5.738,13.043c0.563,1.654,1.253,3.607,1.045,5.392c-0.177,1.505-1.419,2.193-1.219,4.175   c0.183,1.796,2.446,3.843,3.653,5.738c0.848,1.332,3.582,4.015,3.304,6.088c-0.314,2.346-3.076,2.116-4.695,3.478   c-0.128,1.322,0.672,2.257,0.522,3.305c-0.143,1.002-1.58,1.348-1.736,2.244c0.061-0.174,0.513,0.756,0.533,0.756   c0.712,1.942-1.262,2.336-1.406,3.957c1.267,4.203,0.621,6.931-2.261,8.347c-3.371,1.657-8.693,0.102-11.652,1.741   c-2.832,1.567-1.432,4.88-2.381,8.493h-28.839v-80.66H-279.444z"/>
    </g>
  </g>
</svg>