<svg xmlns="http://www.w3.org/2000/svg" viewBox="0 0 1536 1024" preserveAspectRatio="xMidYMid slice">
  <defs>
    <linearGradient id="g1" x1="0" x2="1" y1="0" y2="1">
      <stop offset="0%" stop-color="#e6fff3"/>
      <stop offset="50%" stop-color="#e9fbff"/>
      <stop offset="100%" stop-color="#ecfff6"/>
    </linearGradient>
    <linearGradient id="g2" x1="0" x2="1" y1="0" y2="0">
      <stop offset="0%" stop-color="#7dd3fc" stop-opacity="0.35"/>
      <stop offset="100%" stop-color="#34d399" stop-opacity="0.35"/>
    </linearGradient>
    <linearGradient id="g3" x1="0" x2="1" y1="1" y2="0">
      <stop offset="0%" stop-color="#22d3ee" stop-opacity="0.2"/>
      <stop offset="100%" stop-color="#86efac" stop-opacity="0.2"/>
    </linearGradient>
  </defs>
  <rect width="100%" height="100%" fill="url(#g1)"/>
  <g>
    <path fill="url(#g2)" d="M0 680 C 260 620, 520 780, 780 720 C 1040 660, 1300 760, 1536 700 L 1536 1024 L 0 1024 Z"/>
    <path fill="url(#g3)" d="M0 540 C 260 500, 520 620, 780 560 C 1040 500, 1300 580, 1536 540 L 1536 1024 L 0 1024 Z"/>
    <path fill="#ffffff" opacity="0.4" d="M0 780 C 220 740, 520 860, 780 820 C 1040 780, 1300 860, 1536 820 L 1536 1024 L 0 1024 Z"/>
  </g>
</svg>

