<?xml version="1.0" encoding="UTF-8" standalone="no"?>
<!DOCTYPE svg PUBLIC "-//W3C//DTD SVG 1.1//EN" "http://www.w3.org/Graphics/SVG/1.1/DTD/svg11.dtd">
<!-- Created with Vectornator (http://vectornator.io/) -->
<svg height="100%" stroke-miterlimit="10" style="fill-rule:nonzero;clip-rule:evenodd;stroke-linecap:round;stroke-linejoin:round;" version="1.1" viewBox="0 0 1280 161" width="100%" xml:space="preserve" xmlns="http://www.w3.org/2000/svg" xmlns:vectornator="http://vectornator.io" xmlns:xlink="http://www.w3.org/1999/xlink">
<defs/>
<g id="Layer-1" vectornator:layerName="Layer 1">
<g fill="#f3f4f6" opacity="1" stroke="none" vectornator:layerName="Text 1">
<path d="M95.064 159.198C83.572 159.198 72.964 157.246 63.24 153.342C53.516 149.438 45.0443 143.949 37.825 136.877C30.6057 129.805 25.007 121.555 21.029 112.125C17.051 102.696 15.062 92.3827 15.062 81.1854C15.062 69.988 17.051 59.6747 21.029 50.2454C25.007 40.816 30.6057 32.5654 37.825 25.4934C45.0443 18.4214 53.516 12.9332 63.24 9.02886C72.964 5.12452 83.572 3.17236 95.064 3.17236C105.525 3.17236 115.359 4.79302 124.567 8.03436C133.776 11.2757 141.695 16.2114 148.325 22.8414L145.673 25.9354C138.601 19.158 130.829 14.3697 122.357 11.5704C113.886 8.77102 104.788 7.37136 95.064 7.37136C84.3087 7.37136 74.3268 9.24986 65.1185 13.0069C55.9102 16.7639 47.8805 21.9942 41.0295 28.6979C34.1785 35.4015 28.8745 43.2102 25.1175 52.1239C21.3605 61.0375 19.482 70.7247 19.482 81.1854C19.482 91.646 21.3605 101.333 25.1175 110.247C28.8745 119.161 34.1785 126.969 41.0295 133.673C47.8805 140.377 55.9102 145.607 65.1185 149.364C74.3268 153.121 84.3087 154.999 95.064 154.999C104.788 154.999 113.959 153.526 122.578 150.579C131.198 147.633 138.896 142.771 145.673 135.993L148.325 139.308C141.695 145.938 133.776 150.911 124.567 154.226C115.359 157.541 105.525 159.198 95.064 159.198ZM148.325 139.308L144.126 138.866L144.126 82.7324L148.325 82.7324L148.325 139.308Z"/>
<path d="M175.066 158.535L246.891 3.83536L251.311 3.83536L323.136 158.535L318.053 158.535L247.996 7.37136L250.206 7.37136L180.149 158.535L175.066 158.535ZM198.713 111.904L200.923 107.705L297.058 107.705L299.268 111.904L198.713 111.904Z"/>
<path d="M354.518 158.535L354.518 3.83536L406.895 3.83536C425.901 3.83536 440.782 8.29219 451.537 17.2059C462.292 26.1195 467.67 38.606 467.67 54.6654C467.67 65.2734 465.239 74.3712 460.377 81.9589C455.515 89.5465 448.554 95.3662 439.492 99.4179C430.431 103.47 419.566 105.495 406.895 105.495L356.949 105.495L358.938 103.506L358.938 158.535L354.518 158.535ZM464.355 158.535L423.912 102.401L429.437 102.401L469.88 158.535L464.355 158.535ZM358.938 103.064L356.949 101.296L407.337 101.296C425.459 101.296 439.308 97.2079 448.885 89.0309C458.462 80.8539 463.25 69.3987 463.25 54.6654C463.25 39.7847 458.462 28.2927 448.885 20.1894C439.308 12.086 425.459 8.03436 407.337 8.03436L356.949 8.03436L358.938 6.26636L358.938 103.064Z"/>
<path d="M512.754 158.535L512.754 3.83536L516.511 3.83536L590.104 132.457L588.115 132.457L661.487 3.83536L665.244 3.83536L665.244 158.535L660.824 158.535L660.824 10.2444L662.592 10.2444L590.325 136.656L587.673 136.656L515.185 10.2444L517.174 10.2444L517.174 158.535L512.754 158.535Z"/>
<path d="M889.78 158.535L889.78 3.83536L893.537 3.83536L1009.34 153.452L1006.91 153.452L1006.91 3.83536L1011.33 3.83536L1011.33 158.535L1007.57 158.535L891.769 8.91836L894.2 8.91836L894.2 158.535L889.78 158.535Z"/>
<path d="M1070.12 158.535L1070.12 3.83536L1074.54 3.83536L1074.54 158.535L1070.12 158.535Z"/>
<path d="M1105.92 158.535L1177.74 3.83536L1182.16 3.83536L1253.99 158.535L1248.9 158.535L1178.85 7.37136L1181.06 7.37136L1111 158.535L1105.92 158.535ZM1129.56 111.904L1131.77 107.705L1227.91 107.705L1230.12 111.904L1129.56 111.904Z"/>
</g>
<path d="M768.492 3.79284C764.486 4.37899 760.139 5.45359 755.45 7.01664C750.761 8.57971 746.267 10.5824 741.969 13.0246C737.67 15.4669 734.349 17.6161 732.004 19.4722C729.66 21.3284 727.364 23.3799 725.117 25.6268C722.87 27.8737 720.818 30.1694 718.962 32.5139C717.106 34.8585 715.445 37.2031 713.98 39.5476C712.515 41.8922 710.756 45.507 708.705 50.3914C706.653 55.276 705.188 59.8676 704.309 64.1658C703.429 68.4643 702.941 73.2511 702.843 78.5264C702.746 83.8017 703.136 89.0284 704.016 94.2058C704.895 99.3835 706.311 104.415 708.265 109.299C710.219 114.184 712.417 118.531 714.859 122.341C717.302 126.151 720.379 130.01 724.091 133.917C727.803 137.825 731.711 141.244 735.814 144.175C739.917 147.106 743.238 149.206 745.779 150.476C748.319 151.746 751.054 152.918 753.985 153.993C756.915 155.067 760.969 156.093 766.147 157.07C771.325 158.047 776.258 158.535 780.947 158.535C785.637 158.535 789.398 158.34 792.231 157.949C795.064 157.559 797.995 156.972 801.023 156.191C804.051 155.409 807.812 154.042 812.306 152.088C816.8 150.134 820.805 147.985 824.322 145.64C827.839 143.296 831.502 140.267 835.312 136.555C839.122 132.843 841.809 129.961 843.372 127.909C844.935 125.858 846.498 123.513 848.061 120.875C849.624 118.238 851.285 114.819 853.043 110.618C854.802 106.417 856.072 102.754 856.853 99.6276C857.635 96.5017 858.221 93.4731 858.612 90.5424C859.002 87.6116 859.149 83.5576 859.051 78.3798C858.954 73.2024 858.416 68.3178 857.439 63.7262C856.463 59.1349 855.486 55.5201 854.509 52.8825C853.532 50.2448 852.457 47.7537 851.285 45.4091C850.113 43.0645 848.354 40.1827 846.01 36.7634C843.665 33.3445 840.539 29.681 836.631 25.7733C832.724 21.8657 828.962 18.6907 825.348 16.2484C821.733 13.8062 818.51 11.9012 815.677 10.5335C812.843 9.16586 810.157 8.04239 807.617 7.16317C805.077 6.28395 801.56 5.40474 797.066 4.52552C792.573 3.6463 787.688 3.15785 782.413 3.06016C777.137 2.96247 772.497 3.20669 768.492 3.79284ZM780.801 6.13742C784.22 6.13742 787.248 6.28395 789.886 6.57703C792.524 6.8701 795.161 7.30971 797.799 7.89586C800.437 8.482 803.416 9.36122 806.738 10.5335C810.059 11.7058 813.136 13.0246 815.97 14.49C818.803 15.9554 821.44 17.5184 823.883 19.1792C826.325 20.8399 829.207 23.2334 832.528 26.3595C835.85 29.4856 838.487 32.2698 840.441 34.7119C842.395 37.1544 844.007 39.4011 845.277 41.4526C846.547 43.5041 848.159 46.8745 850.113 51.5636C852.067 56.2528 853.434 60.4048 854.216 64.0193C854.997 67.634 855.486 71.1995 855.681 74.7164C855.876 78.2333 855.339 80.7734 854.069 82.3363C852.799 83.8996 851.089 85.5601 848.94 87.3186C846.791 89.077 844.202 90.7868 841.174 92.4474C838.146 94.1082 835.166 95.427 832.235 96.4038C829.304 97.3809 825.836 98.1623 821.831 98.7484C817.826 99.3346 813.772 99.579 809.669 99.4811C805.565 99.3835 801.365 98.895 797.066 98.0157C792.768 97.1365 789.3 96.2087 786.662 95.2315C784.025 94.2547 779.873 92.2032 774.207 89.077C768.541 85.9511 764.486 83.9482 762.044 83.069C759.602 82.1898 756.622 81.3595 753.105 80.5779C749.588 79.7966 746.023 79.2591 742.408 78.966C738.794 78.6729 734.837 78.6729 730.539 78.966C726.24 79.2591 722.186 79.8452 718.376 80.7244C714.566 81.6036 711.538 82.5318 709.291 83.5086C708.167 83.9972 707.044 84.4857 705.921 84.974C705.969 82.6294 706.018 80.2848 706.067 77.9402C706.165 73.2511 706.849 68.2688 708.119 62.9935C709.389 57.7182 710.903 53.1755 712.661 49.3656C714.42 45.5556 716.813 41.5505 719.842 37.3496C722.87 33.149 725.996 29.5344 729.22 26.506C732.444 23.4776 735.081 21.2307 737.133 19.7653C739.184 18.3 741.529 16.8346 744.167 15.3692C746.804 13.9039 750.272 12.3897 754.571 10.8266C758.869 9.26354 763.461 8.09125 768.345 7.30971C773.23 6.5282 777.382 6.13742 780.801 6.13742ZM740.357 82.3363C743.971 82.5318 747.635 83.0204 751.347 83.8017C755.059 84.5833 758.185 85.4136 760.725 86.2928C763.265 87.172 766.782 88.8818 771.276 91.4216C775.77 93.9617 779.335 95.8177 781.973 96.99C784.611 98.1623 787.932 99.2859 791.938 100.36C795.943 101.435 799.655 102.168 803.074 102.558C806.494 102.949 810.694 102.998 815.677 102.705C820.659 102.412 825.104 101.777 829.011 100.8C832.919 99.8231 836.924 98.3088 841.027 96.2573C845.13 94.2058 847.963 92.5939 849.526 91.4216C851.089 90.2493 852.457 88.9794 853.629 87.6116C854.216 86.9279 854.802 86.2442 855.388 85.5601C855.437 85.9997 855.486 86.4394 855.534 86.879C855.632 87.7582 855.192 90.5913 854.216 95.3781C853.239 100.165 852.262 103.877 851.285 106.515C850.308 109.153 849.233 111.644 848.061 113.988C846.889 116.333 845.228 119.117 843.079 122.341C840.93 125.565 838.097 128.984 834.58 132.598C831.063 136.213 827.057 139.535 822.564 142.563C818.07 145.591 813.625 147.985 809.229 149.743C804.833 151.502 800.437 152.82 796.041 153.7C791.645 154.579 787.248 155.067 782.852 155.165C778.456 155.263 773.572 154.872 768.199 153.993C762.826 153.114 758.332 151.99 754.717 150.622C751.103 149.255 747.781 147.741 744.753 146.08C741.724 144.419 738.794 142.514 735.961 140.365C733.127 138.216 730.441 135.871 727.901 133.331C725.361 130.791 722.626 127.47 719.695 123.367C716.764 119.264 714.273 114.867 712.222 110.178C710.17 105.489 708.656 100.751 707.679 95.9642C706.702 91.1775 706.995 88.3933 708.558 87.6116C710.121 86.8303 712.368 85.9997 715.299 85.1205C718.23 84.2413 722.235 83.5086 727.315 82.9225C732.395 82.3363 736.742 82.1411 740.357 82.3363Z" fill="#f3f4f6" fill-rule="nonzero" opacity="1" stroke="#f3f4f6" stroke-linecap="butt" stroke-linejoin="round" stroke-width="1" vectornator:layerName="Curve 1"/>
<path d="M765.804 63.3353C765.804 55.1635 772.587 48.5392 780.954 48.5392C789.322 48.5392 796.105 55.1635 796.105 63.3353C796.105 71.5068 789.322 78.1314 780.954 78.1314C772.587 78.1314 765.804 71.5068 765.804 63.3353Z" fill="none" opacity="1" stroke="#eebf5b" stroke-linecap="butt" stroke-linejoin="round" stroke-width="4" vectornator:layerName="Oval 1"/>
</g>
</svg>
