<svg xmlns="http://www.w3.org/2000/svg" viewBox="0 0 1200 480" fill="none">
  <defs>
    <linearGradient id="g" x1="0" x2="1" y1="0" y2="1">
      <stop offset="0%" stop-color="#34d399"/>
      <stop offset="100%" stop-color="#38bdf8"/>
    </linearGradient>
    <linearGradient id="gb" x1="0" x2="0" y1="0" y2="1">
      <stop offset="0%" stop-color="#e6fff6"/>
      <stop offset="100%" stop-color="#ecf8ff"/>
    </linearGradient>
    <filter id="blur" x="-50%" y="-50%" width="200%" height="200%">
      <feGaussianBlur stdDeviation="40"/>
    </filter>
  </defs>
  <rect width="1200" height="480" fill="url(#gb)"/>
  <g opacity=".5" filter="url(#blur)">
    <circle cx="250" cy="90" r="120" fill="#bbf7d0"/>
    <circle cx="980" cy="120" r="140" fill="#bae6fd"/>
    <circle cx="600" cy="380" r="160" fill="#a7f3d0"/>
  </g>
  <g stroke="url(#g)" stroke-width="3" stroke-linecap="round" stroke-linejoin="round" fill="none">
    <!-- two mirrored faces -->
    <path d="M420,120c60,0,90,32,110,74 8,16,12,34,12,52 0,26-10,52-30,74-20,22-30,48-30,74 0,12,2,24,6,36"/>
    <path d="M780,120c-60,0-90,32-110,74-8,16-12,34-12,52 0,26 10,52 30,74 20,22 30,48 30,74 0,12-2,24-6,36"/>
    <!-- tech circuit hints -->
    <path d="M600,160v40m0,40v40"/>
    <circle cx="600" cy="240" r="6"/>
    <path d="M540,220h-60m240,0h-60"/>
    <circle cx="480" cy="220" r="4"/>
    <circle cx="720" cy="220" r="4"/>
    <path d="M520,300h-80m320,0h-80"/>
    <circle cx="440" cy="300" r="4"/>
    <circle cx="760" cy="300" r="4"/>
    <!-- subtle arcs -->
    <path d="M390,200c50-60,120-90,210-90s160,30,210,90" opacity=".5"/>
    <path d="M390,340c50,60,120,90,210,90s160-30,210-90" opacity=".35"/>
  </g>
</svg>

