<svg xmlns="http://www.w3.org/2000/svg" width="128" height="128" viewBox="0 0 24 24" fill="none" stroke="url(#grad)" stroke-width="1.6" stroke-linecap="round" stroke-linejoin="round">
  <defs>
    <linearGradient id="grad" x1="0" x2="1" y1="0" y2="1">
      <stop offset="0%" stop-color="#10b981"/>
      <stop offset="100%" stop-color="#60a5fa"/>
    </linearGradient>
  </defs>
  <path d="M20.8 8.7c0 4.4-6.6 8.3-8.8 9.8-2.2-1.5-8.8-5.4-8.8-9.8C3.2 6.6 4.9 5 7 5c1.3 0 2.5.7 3.2 1.7C11 5.7 12.2 5 13.5 5c2.1 0 3.8 1.6 3.8 3.7z"/>
  <path d="M12 2v1"/>
  <path d="M3 10h1"/>
  <path d="M20 10h1"/>
  <path d="M6 3l.7.7"/>
  <path d="M18 3l-.7.7"/>
</svg>

