<svg xmlns="http://www.w3.org/2000/svg" viewBox="0 0 1200 900" preserveAspectRatio="xMidYMid slice">
  <defs>
    <!-- базовый градиент в палитре сайта -->
    <linearGradient id="bg" x1="0" y1="0" x2="0" y2="1">
      <stop offset="0%" stop-color="#eaf6ff"/>
      <stop offset="100%" stop-color="#e8fff7"/>
    </linearGradient>
    <!-- мягкие свечения -->
    <radialGradient id="wave1" cx="20%" cy="30%" r="40%">
      <stop offset="0%" stop-color="#7dd3fc" stop-opacity="0.25"/>
      <stop offset="100%" stop-color="#7dd3fc" stop-opacity="0"/>
    </radialGradient>
    <radialGradient id="wave2" cx="80%" cy="25%" r="45%">
      <stop offset="0%" stop-color="#34d399" stop-opacity="0.2"/>
      <stop offset="100%" stop-color="#34d399" stop-opacity="0"/>
    </radialGradient>
    <filter id="blur20" x="-50%" y="-50%" width="200%" height="200%">
      <feGaussianBlur stdDeviation="20"/>
    </filter>
    <!-- градиент для контуров лиц -->
    <linearGradient id="line" x1="0" y1="0" x2="1" y2="1">
      <stop offset="0%" stop-color="#22d3ee"/>
      <stop offset="100%" stop-color="#10b981"/>
    </linearGradient>
  </defs>

  <!-- фон -->
  <rect width="100%" height="100%" fill="url(#bg)"/>
  <rect width="100%" height="100%" fill="url(#wave1)" filter="url(#blur20)"/>
  <rect width="100%" height="100%" fill="url(#wave2)" filter="url(#blur20)"/>

  <!-- две фигуры лиц в профиль, смотрят вправо -->
  <g transform="translate(0,40)">
    <!-- подсветка более выразительных контуров -->
    <g opacity="0.25" filter="url(#blur20)">
      <path d="M520,240
               c 48,10 84,34 98,70
               c 6,16 8,34 4,50
               c -4,18 -16,36 -34,54
               c -10,10 -16,19 -18,27
               c -3,12 -1,22 7,34
               c 6,10 6,20 0,32
               c -12,22 -20,38 -22,56
               c -2,16 0,30 4,44" stroke="#7dd3fc" stroke-width="18" fill="none"/>
      <path d="M700,240
               c 48,10 84,34 98,70
               c 6,16 8,34 4,50
               c -4,18 -16,36 -34,54
               c -10,10 -16,19 -18,27
               c -3,12 -1,22 7,34
               c 6,10 6,20 0,32
               c -12,22 -20,38 -22,56
               c -2,16 0,30 4,44" stroke="#34d399" stroke-width="18" fill="none"/>
    </g>
    <!-- основные контуры с детализацией лба/носа/губ/подбородка -->
    <path d="M520,240
             c 46,8 80,30 94,66
             c 5,12 7,26 4,40
             c -2,10 -8,22 -18,32
             c -8,8 -12,14 -14,20
             c -2,8 0,16 6,24
             c 7,10 7,20 0,32
             c -10,18 -18,34 -20,50
             c -2,14 0,28 4,42" stroke="url(#line)" stroke-width="6" fill="none" stroke-linecap="round" stroke-linejoin="round"/>
    <path d="M700,240
             c 46,8 80,30 94,66
             c 5,12 7,26 4,40
             c -2,10 -8,22 -18,32
             c -8,8 -12,14 -14,20
             c -2,8 0,16 6,24
             c 7,10 7,20 0,32
             c -10,18 -18,34 -20,50
             c -2,14 0,28 4,42" stroke="url(#line)" stroke-width="6" fill="none" stroke-linecap="round" stroke-linejoin="round"/>

    <!-- тонкие штрихи носа и губ -->
    <path d="M610,408 c -8,8 -10,16 -8,24" stroke="url(#line)" stroke-width="3" fill="none" stroke-linecap="round"/>
    <path d="M602,452 c 14,6 20,12 18,20" stroke="url(#line)" stroke-width="3" fill="none" stroke-linecap="round"/>
    <path d="M790,408 c -8,8 -10,16 -8,24" stroke="url(#line)" stroke-width="3" fill="none" stroke-linecap="round"/>
    <path d="M782,452 c 14,6 20,12 18,20" stroke="url(#line)" stroke-width="3" fill="none" stroke-linecap="round"/>
  </g>

  <!-- поверхность play -->
  <circle cx="600" cy="450" r="92" fill="#ffffff" opacity="0.55" filter="url(#blur20)"/>
  <g>
    <circle cx="600" cy="450" r="58" fill="#ffffff"/>
    <polygon points="585,420 635,450 585,480" fill="#0ea5e9"/>
  </g>
</svg>

