<?xml version="1.0" encoding="UTF-8" standalone="no"?>
<!DOCTYPE svg PUBLIC "-//W3C//DTD SVG 1.1//EN" "http://www.w3.org/Graphics/SVG/1.1/DTD/svg11.dtd">
<!-- Created with Vectornator (http://vectornator.io/) -->
<svg height="100%" stroke-miterlimit="10" style="fill-rule:nonzero;clip-rule:evenodd;stroke-linecap:round;stroke-linejoin:round;" version="1.1" viewBox="0 0 533.71 533.71" width="100%" xml:space="preserve" xmlns="http://www.w3.org/2000/svg" xmlns:vectornator="http://vectornator.io" xmlns:xlink="http://www.w3.org/1999/xlink">
<defs/>
<clipPath id="ArtboardFrame">
<rect height="533.71" width="533.71" x="0" y="0"/>
</clipPath>
<g clip-path="url(#ArtboardFrame)" id="Layer-1" vectornator:layerName="Layer 1">
<path d="M224.05 2.57143C210.383 4.57143 195.55 8.2381 179.55 13.5714C163.55 18.9048 148.217 25.7381 133.55 34.0714C118.883 42.4048 107.55 49.7381 99.55 56.0714C91.55 62.4048 83.7167 69.4048 76.05 77.0714C68.3833 84.7381 61.3833 92.5714 55.05 100.571C48.7167 108.571 43.05 116.571 38.05 124.571C33.05 132.571 27.05 144.905 20.05 161.571C13.05 178.238 8.05 193.905 5.05 208.571C2.05 223.238 0.383333 239.571 0.05 257.571C-0.283333 275.571 1.05 293.405 4.05 311.071C7.05 328.738 11.8833 345.905 18.55 362.571C25.2167 379.238 32.7167 394.071 41.05 407.071C49.3833 420.071 59.8833 433.238 72.55 446.571C85.2167 459.905 98.55 471.571 112.55 481.571C126.55 491.571 137.883 498.738 146.55 503.071C155.217 507.405 164.55 511.405 174.55 515.071C184.55 518.738 198.383 522.238 216.05 525.571C233.717 528.905 250.55 530.571 266.55 530.571C282.55 530.571 295.383 529.905 305.05 528.571C314.717 527.238 324.717 525.238 335.05 522.571C345.383 519.905 358.217 515.238 373.55 508.571C388.883 501.905 402.55 494.571 414.55 486.571C426.55 478.571 439.05 468.238 452.05 455.571C465.05 442.905 474.217 433.071 479.55 426.071C484.883 419.071 490.217 411.071 495.55 402.071C500.883 393.071 506.55 381.405 512.55 367.071C518.55 352.738 522.883 340.238 525.55 329.571C528.217 318.905 530.217 308.571 531.55 298.571C532.883 288.571 533.383 274.738 533.05 257.071C532.717 239.405 530.883 222.738 527.55 207.071C524.217 191.405 520.883 179.071 517.55 170.071C514.217 161.071 510.55 152.571 506.55 144.571C502.55 136.571 496.55 126.738 488.55 115.071C480.55 103.405 469.883 90.9048 456.55 77.5714C443.217 64.2381 430.383 53.4048 418.05 45.0714C405.717 36.7381 394.717 30.2381 385.05 25.5714C375.383 20.9048 366.217 17.0714 357.55 14.0714C348.883 11.0714 336.883 8.07143 321.55 5.07143C306.217 2.07143 289.55 0.404762 271.55 0.0714286C253.55-0.261905 237.717 0.571429 224.05 2.57143ZM266.05 10.5714C277.717 10.5714 288.05 11.0714 297.05 12.0714C306.05 13.0714 315.05 14.5714 324.05 16.5714C333.05 18.5714 343.217 21.5714 354.55 25.5714C365.883 29.5714 376.383 34.0714 386.05 39.0714C395.717 44.0714 404.717 49.4048 413.05 55.0714C421.383 60.7381 431.217 68.9048 442.55 79.5714C453.883 90.2381 462.883 99.7381 469.55 108.071C476.217 116.405 481.717 124.071 486.05 131.071C490.383 138.071 495.883 149.571 502.55 165.571C509.217 181.571 513.883 195.738 516.55 208.071C519.217 220.405 520.883 232.571 521.55 244.571C522.217 256.571 520.383 265.238 516.05 270.571C511.717 275.905 505.883 281.571 498.55 287.571C491.217 293.571 482.383 299.405 472.05 305.071C461.717 310.738 451.55 315.238 441.55 318.571C431.55 321.905 419.717 324.571 406.05 326.571C392.383 328.571 378.55 329.405 364.55 329.071C350.55 328.738 336.217 327.071 321.55 324.071C306.883 321.071 295.05 317.905 286.05 314.571C277.05 311.238 262.883 304.238 243.55 293.571C224.217 282.905 210.383 276.071 202.05 273.071C193.717 270.071 183.55 267.238 171.55 264.571C159.55 261.905 147.383 260.071 135.05 259.071C122.717 258.071 109.217 258.071 94.55 259.071C79.8833 260.071 66.05 262.071 53.05 265.071C40.05 268.071 29.7167 271.238 22.05 274.571C18.2167 276.238 14.3833 277.905 10.55 279.571C10.7167 271.571 10.8833 263.571 11.05 255.571C11.3833 239.571 13.7167 222.571 18.05 204.571C22.3833 186.571 27.55 171.071 33.55 158.071C39.55 145.071 47.7167 131.405 58.05 117.071C68.3833 102.738 79.05 90.4048 90.05 80.0714C101.05 69.7381 110.05 62.0714 117.05 57.0714C124.05 52.0714 132.05 47.0714 141.05 42.0714C150.05 37.0714 161.883 31.9048 176.55 26.5714C191.217 21.2381 206.883 17.2381 223.55 14.5714C240.217 11.9048 254.383 10.5714 266.05 10.5714ZM128.05 270.571C140.383 271.238 152.883 272.905 165.55 275.571C178.217 278.238 188.883 281.071 197.55 284.071C206.217 287.071 218.217 292.905 233.55 301.571C248.883 310.238 261.05 316.571 270.05 320.571C279.05 324.571 290.383 328.405 304.05 332.071C317.717 335.738 330.383 338.238 342.05 339.571C353.717 340.905 368.05 341.071 385.05 340.071C402.05 339.071 417.217 336.905 430.55 333.571C443.883 330.238 457.55 325.071 471.55 318.071C485.55 311.071 495.217 305.571 500.55 301.571C505.883 297.571 510.55 293.238 514.55 288.571C516.55 286.238 518.55 283.905 520.55 281.571C520.717 283.071 520.883 284.571 521.05 286.071C521.383 289.071 519.883 298.738 516.55 315.071C513.217 331.405 509.883 344.071 506.55 353.071C503.217 362.071 499.55 370.571 495.55 378.571C491.55 386.571 485.883 396.071 478.55 407.071C471.217 418.071 461.55 429.738 449.55 442.071C437.55 454.405 423.883 465.738 408.55 476.071C393.217 486.405 378.05 494.571 363.05 500.571C348.05 506.571 333.05 511.071 318.05 514.071C303.05 517.071 288.05 518.738 273.05 519.071C258.05 519.405 241.383 518.071 223.05 515.071C204.717 512.071 189.383 508.238 177.05 503.571C164.717 498.905 153.383 493.738 143.05 488.071C132.717 482.405 122.717 475.905 113.05 468.571C103.383 461.238 94.2167 453.238 85.55 444.571C76.8833 435.905 67.55 424.571 57.55 410.571C47.55 396.571 39.05 381.571 32.05 365.571C25.05 349.571 19.8833 333.405 16.55 317.071C13.2167 300.738 14.2167 291.238 19.55 288.571C24.8833 285.905 32.55 283.071 42.55 280.071C52.55 277.071 66.2167 274.571 83.55 272.571C100.883 270.571 115.717 269.905 128.05 270.571Z" fill="#2e6777" fill-rule="nonzero" opacity="1" stroke="none" vectornator:layerName="Curve 1"/>
</g>
<g id="Layer-2" vectornator:layerName="Layer 2">
<path d="M223.486 198.837C223.486 170.954 246.63 148.351 275.18 148.351C303.73 148.351 326.875 170.954 326.875 198.837C326.875 226.719 303.73 249.323 275.18 249.323C246.63 249.323 223.486 226.719 223.486 198.837Z" fill="none" opacity="1" stroke="#eebf5b" stroke-linecap="butt" stroke-linejoin="round" stroke-width="10" vectornator:layerName="Oval 1"/>
</g>
</svg>

